<svg width="56" height="56" viewBox="0 0 56 56" fill="none" xmlns="http://www.w3.org/2000/svg">
<rect width="56" height="56" rx="6" fill="#0D6BF8"/>
<path d="M31.0504 18.0003C31.0504 16.8957 31.952 15.9834 33.0414 16.1658C35.4989 16.5775 37.7864 17.7447 39.5715 19.5298C41.8315 21.7898 43.1011 24.8549 43.1011 28.0509C43.1011 31.247 41.8315 34.3121 39.5715 36.572C37.7864 38.3571 35.4989 39.5243 33.0414 39.936C31.952 40.1185 31.0504 39.2061 31.0504 38.1016V28.0509L31.0504 18.0003Z" fill="white"/>
<path d="M15.0504 18.0003C15.0504 16.8957 15.952 15.9834 17.0414 16.1658C19.4989 16.5775 21.7864 17.7447 23.5715 19.5298C25.8315 21.7898 27.1011 24.8549 27.1011 28.0509C27.1011 31.247 25.8315 34.3121 23.5715 36.572C21.7864 38.3571 19.4989 39.5243 17.0414 39.936C15.952 40.1185 15.0504 39.2061 15.0504 38.1016L15.0504 28.0509L15.0504 18.0003Z" fill="white"/>
</svg>
