<svg width="44" height="44" viewBox="0 0 44 44" fill="none" xmlns="http://www.w3.org/2000/svg">
<rect width="44" height="44" rx="6" fill="#0D6BF8"/>
<mask id="mask0_1244_39674" style="mask-type:alpha" maskUnits="userSpaceOnUse" x="6" y="7" width="30" height="30">
<rect x="6" y="7" width="30" height="30" fill="white"/>
</mask>
<g mask="url(#mask0_1244_39674)">
<path d="M21.2378 30.0938C21.0711 30.0938 20.9045 30.0729 20.7378 30.0312C20.5711 29.9896 20.4149 29.9271 20.269 29.8438L14.8003 26.875C14.467 26.6875 14.2065 26.4375 14.019 26.125C13.8315 25.8125 13.7378 25.4583 13.7378 25.0625V20.2188L11.7378 19.125C11.5503 19.0417 11.4149 18.9217 11.3315 18.765C11.2482 18.6092 11.1961 18.4375 11.1753 18.25C11.1753 18.0625 11.222 17.8904 11.3153 17.7337C11.4095 17.5779 11.5503 17.4583 11.7378 17.375L20.269 12.7187C20.4149 12.6354 20.5711 12.5729 20.7378 12.5313C20.9045 12.4896 21.0711 12.4688 21.2378 12.4688C21.4045 12.4688 21.5711 12.4896 21.7378 12.5313C21.9045 12.5729 22.0607 12.6354 22.2065 12.7187L31.8628 17.9687C32.0295 18.0729 32.1595 18.2029 32.2528 18.3587C32.347 18.5154 32.394 18.6771 32.394 18.8438V25.5938C32.394 25.7812 32.3315 25.9325 32.2065 26.0475C32.0815 26.1617 31.9357 26.2188 31.769 26.2188C31.5815 26.2188 31.4303 26.1617 31.3153 26.0475C31.2011 25.9325 31.144 25.7812 31.144 25.5938V18.9375L28.7378 20.2188V25.0625C28.7378 25.4583 28.644 25.8125 28.4565 26.125C28.269 26.4375 28.0086 26.6875 27.6753 26.875L22.2065 29.8438C22.0607 29.9271 21.9045 29.9896 21.7378 30.0312C21.5711 30.0729 21.4045 30.0938 21.2378 30.0938ZM20.9565 22.7188C21.0607 22.7812 21.1595 22.8125 21.2528 22.8125C21.347 22.8125 21.4461 22.7812 21.5503 22.7188L29.769 18.25L21.5503 13.7813C21.4461 13.7188 21.347 13.6875 21.2528 13.6875C21.1595 13.6875 21.0607 13.7188 20.9565 13.7813L12.7065 18.25L20.9565 22.7188ZM20.9253 28.7812C21.0295 28.8438 21.1336 28.875 21.2378 28.875C21.342 28.875 21.4461 28.8438 21.5503 28.7812L27.1128 25.75C27.2586 25.6667 27.3578 25.5729 27.4103 25.4688C27.462 25.3646 27.4878 25.2396 27.4878 25.0938V20.9062L22.2065 23.7812C22.0607 23.8854 21.9045 23.9529 21.7378 23.9837C21.5711 24.0154 21.4045 24.0312 21.2378 24.0312C21.0711 24.0312 20.9045 24.0154 20.7378 23.9837C20.5711 23.9529 20.4149 23.8854 20.269 23.7812L14.9878 20.9062V25.0938C14.9878 25.2188 15.0136 25.3383 15.0653 25.4525C15.1178 25.5675 15.217 25.6667 15.3628 25.75L20.9253 28.7812Z" fill="white"/>
</g>
</svg>
